<svg id="Layer_1" data-name="Layer 1" xmlns="http://www.w3.org/2000/svg" viewBox="0 0 200 100"><defs><style>.cls-1{fill:#c1272d;}.cls-2{fill:#006bd6;}.cls-3{fill:#c9002b;}.cls-4{fill:none;}</style></defs><path class="cls-1" d="M98,85v.24l.48-.24Z"/><polygon class="cls-2" points="42.47 20.34 30.11 20.34 30.11 13.2 42.47 13.2 42.47 5.83 23.57 5.83 23.57 23.56 42.47 23.56 42.47 20.34"/><path class="cls-2" d="M58,16.93a11.4,11.4,0,0,1,8.37-3.39q5.88,0,10.58,5l4.61-4.4A20,20,0,0,0,66.51,7.16a18.91,18.91,0,0,0-9.4,2.44,17.06,17.06,0,0,0-9,14h6.64A11.18,11.18,0,0,1,58,16.93Z"/><polygon class="cls-2" points="42.47 28.27 42.47 24.75 23.57 24.75 23.57 43.85 42.47 43.85 42.47 37.38 30.11 37.38 30.11 28.27 42.47 28.27"/><path class="cls-2" d="M71.77,37.32a12.67,12.67,0,0,1-5.25,1.07,12.34,12.34,0,0,1-6.11-1.53,10.74,10.74,0,0,1-4.26-4.22,12.39,12.39,0,0,1-1.5-6.15,13.82,13.82,0,0,1,.12-1.73H48.13c-.05.56-.08,1.13-.08,1.72A17.72,17.72,0,0,0,53.2,39.6a18,18,0,0,0,13.22,5.12,19.71,19.71,0,0,0,7.79-1.45,24.32,24.32,0,0,0,7.25-5.19L77,33.42A19.1,19.1,0,0,1,71.77,37.32Z"/><path class="cls-2" d="M116.08,24.76a13.59,13.59,0,0,1,.13,1.83,11.51,11.51,0,0,1-3.3,8.36,10.73,10.73,0,0,1-8,3.39,11.32,11.32,0,0,1-7.35-2.61,11.08,11.08,0,0,1-4.12-9.09,14.23,14.23,0,0,1,.13-1.88H86.9a17,17,0,0,0-.09,1.76A17.88,17.88,0,0,0,92,39.33a18.08,18.08,0,0,0,25.62.14,17.51,17.51,0,0,0,5.22-12.83c0-.64,0-1.27-.09-1.88Z"/><path class="cls-2" d="M96.72,17a11.36,11.36,0,0,1,16.17.08,11.38,11.38,0,0,1,3.19,6.53h6.64a17.48,17.48,0,0,0-5.2-11.08,17.2,17.2,0,0,0-12.64-5.32,18,18,0,0,0-18,16.4h6.68A11.19,11.19,0,0,1,96.72,17Z"/><path class="cls-3" d="M122.54,57.36a13.24,13.24,0,0,1-2.28,7,19.78,19.78,0,0,1-8.77,7.5,26.93,26.93,0,0,1-11.4,2.45H94.15l6.51-18.45h6.49l-5.52,15.57a13.1,13.1,0,0,0,7-2.17,13.5,13.5,0,0,0,5.08-5.38,10.92,10.92,0,0,0,1.44-4.71q0-3.09-1.72-4.44a7.81,7.81,0,0,0-4.75-1.19H91.31L94.08,49h17.41A13.77,13.77,0,0,1,119,50.87,7.23,7.23,0,0,1,122.54,57.36Z"/><path class="cls-3" d="M136.87,71.38a3.72,3.72,0,0,1-1.94,2.34,5,5,0,0,1-2.3.54h-7.1c-1.72,0-2.57-.72-2.57-2.16a3.78,3.78,0,0,1,.25-1.31L126.34,62h6.52l-3.32,9.35Zm-1.29-16.72a4,4,0,0,1-1.4,3.06A4.81,4.81,0,0,1,130.83,59a4.88,4.88,0,0,1-3.39-1.26,4,4,0,0,1,0-6.1,4.88,4.88,0,0,1,3.39-1.26,4.81,4.81,0,0,1,3.35,1.26A4,4,0,0,1,135.58,54.66Z"/><path class="cls-3" d="M146.18,74.62c-1.44,0-2.67-.05-3.69-.13a19.92,19.92,0,0,1-2.81-.41l.43-3.45c1.25.19,2.37.33,3.33.43s1.88.14,2.74.14a11.28,11.28,0,0,0,4.2-.57,1.87,1.87,0,0,0,1.3-1.8,1.68,1.68,0,0,0-.45-1.29,3.19,3.19,0,0,0-1.42-.65l-4.38-1.12A11.21,11.21,0,0,1,141.28,64,3.89,3.89,0,0,1,140,60.77a4.86,4.86,0,0,1,2.4-4.53q2.4-1.4,7.74-1.4c.92,0,1.78,0,2.58.08s1.62.15,2.46.28l-.4,3.31c-1-.1-1.83-.16-2.57-.2s-1.47-.05-2.18-.05a14.27,14.27,0,0,0-4.63.54,1.89,1.89,0,0,0-1.44,1.79,1.32,1.32,0,0,0,.59,1.2,6.43,6.43,0,0,0,1.82.67l3.52.87a10.6,10.6,0,0,1,4.4,1.92,4.41,4.41,0,0,1,1.39,3.51,4.86,4.86,0,0,1-2.25,4.46Q151.14,74.62,146.18,74.62Z"/><path class="cls-2" d="M25.43,87.47c26.27,9.21,46,8,61,2,1.56-.62,2.84-1.2,4-1.77v-.23Z"/><path class="cls-3" d="M99.43,83.47a88.34,88.34,0,0,0-8.51,4h69.51C140.23,79.37,118.91,75.91,99.43,83.47Z"/><path class="cls-2" d="M127.43,23.47c34,0-8.59-15.9-8.59-15.9L176,23"/><line class="cls-4" x1="86" y1="87" x2="89" y2="85"/></svg>